%TF.GenerationSoftware,KiCad,Pcbnew,9.0.4*%
%TF.CreationDate,2025-10-31T12:34:43+05:30*%
%TF.ProjectId,5V_relay_module,35565f72-656c-4617-995f-6d6f64756c65,rev?*%
%TF.SameCoordinates,Original*%
%TF.FileFunction,Legend,Top*%
%TF.FilePolarity,Positive*%
%FSLAX46Y46*%
G04 Gerber Fmt 4.6, Leading zero omitted, Abs format (unit mm)*
G04 Created by KiCad (PCBNEW 9.0.4) date 2025-10-31 12:34:43*
%MOMM*%
%LPD*%
G01*
G04 APERTURE LIST*
%ADD10C,0.080010*%
%ADD11C,0.150000*%
%ADD12C,0.120000*%
%ADD13C,0.127000*%
%ADD14C,0.200000*%
G04 APERTURE END LIST*
D10*
X176122272Y-122157076D02*
X176083567Y-122193362D01*
X176083567Y-122193362D02*
X176083567Y-122247790D01*
X176083567Y-122247790D02*
X176122272Y-122302219D01*
X176122272Y-122302219D02*
X176199682Y-122338504D01*
X176199682Y-122338504D02*
X176277091Y-122356647D01*
X176277091Y-122356647D02*
X176431910Y-122374790D01*
X176431910Y-122374790D02*
X176548024Y-122374790D01*
X176548024Y-122374790D02*
X176702843Y-122356647D01*
X176702843Y-122356647D02*
X176780253Y-122338504D01*
X176780253Y-122338504D02*
X176857663Y-122302219D01*
X176857663Y-122302219D02*
X176896367Y-122247790D01*
X176896367Y-122247790D02*
X176896367Y-122211504D01*
X176896367Y-122211504D02*
X176857663Y-122157076D01*
X176857663Y-122157076D02*
X176818958Y-122138933D01*
X176818958Y-122138933D02*
X176548024Y-122138933D01*
X176548024Y-122138933D02*
X176548024Y-122211504D01*
X176896367Y-121975647D02*
X176083567Y-121975647D01*
X176083567Y-121975647D02*
X176896367Y-121757933D01*
X176896367Y-121757933D02*
X176083567Y-121757933D01*
X176896367Y-121576504D02*
X176083567Y-121576504D01*
X176083567Y-121576504D02*
X176083567Y-121485790D01*
X176083567Y-121485790D02*
X176122272Y-121431361D01*
X176122272Y-121431361D02*
X176199682Y-121395076D01*
X176199682Y-121395076D02*
X176277091Y-121376933D01*
X176277091Y-121376933D02*
X176431910Y-121358790D01*
X176431910Y-121358790D02*
X176548024Y-121358790D01*
X176548024Y-121358790D02*
X176702843Y-121376933D01*
X176702843Y-121376933D02*
X176780253Y-121395076D01*
X176780253Y-121395076D02*
X176857663Y-121431361D01*
X176857663Y-121431361D02*
X176896367Y-121485790D01*
X176896367Y-121485790D02*
X176896367Y-121576504D01*
X176896367Y-124856647D02*
X176083567Y-124856647D01*
X176896367Y-124675218D02*
X176083567Y-124675218D01*
X176083567Y-124675218D02*
X176896367Y-124457504D01*
X176896367Y-124457504D02*
X176083567Y-124457504D01*
X176083567Y-119911076D02*
X176896367Y-119784076D01*
X176896367Y-119784076D02*
X176083567Y-119657076D01*
X176818958Y-119312362D02*
X176857663Y-119330505D01*
X176857663Y-119330505D02*
X176896367Y-119384933D01*
X176896367Y-119384933D02*
X176896367Y-119421219D01*
X176896367Y-119421219D02*
X176857663Y-119475648D01*
X176857663Y-119475648D02*
X176780253Y-119511933D01*
X176780253Y-119511933D02*
X176702843Y-119530076D01*
X176702843Y-119530076D02*
X176548024Y-119548219D01*
X176548024Y-119548219D02*
X176431910Y-119548219D01*
X176431910Y-119548219D02*
X176277091Y-119530076D01*
X176277091Y-119530076D02*
X176199682Y-119511933D01*
X176199682Y-119511933D02*
X176122272Y-119475648D01*
X176122272Y-119475648D02*
X176083567Y-119421219D01*
X176083567Y-119421219D02*
X176083567Y-119384933D01*
X176083567Y-119384933D02*
X176122272Y-119330505D01*
X176122272Y-119330505D02*
X176160977Y-119312362D01*
X176818958Y-118931362D02*
X176857663Y-118949505D01*
X176857663Y-118949505D02*
X176896367Y-119003933D01*
X176896367Y-119003933D02*
X176896367Y-119040219D01*
X176896367Y-119040219D02*
X176857663Y-119094648D01*
X176857663Y-119094648D02*
X176780253Y-119130933D01*
X176780253Y-119130933D02*
X176702843Y-119149076D01*
X176702843Y-119149076D02*
X176548024Y-119167219D01*
X176548024Y-119167219D02*
X176431910Y-119167219D01*
X176431910Y-119167219D02*
X176277091Y-119149076D01*
X176277091Y-119149076D02*
X176199682Y-119130933D01*
X176199682Y-119130933D02*
X176122272Y-119094648D01*
X176122272Y-119094648D02*
X176083567Y-119040219D01*
X176083567Y-119040219D02*
X176083567Y-119003933D01*
X176083567Y-119003933D02*
X176122272Y-118949505D01*
X176122272Y-118949505D02*
X176160977Y-118931362D01*
D11*
X157253333Y-123584819D02*
X156920000Y-123108628D01*
X156681905Y-123584819D02*
X156681905Y-122584819D01*
X156681905Y-122584819D02*
X157062857Y-122584819D01*
X157062857Y-122584819D02*
X157158095Y-122632438D01*
X157158095Y-122632438D02*
X157205714Y-122680057D01*
X157205714Y-122680057D02*
X157253333Y-122775295D01*
X157253333Y-122775295D02*
X157253333Y-122918152D01*
X157253333Y-122918152D02*
X157205714Y-123013390D01*
X157205714Y-123013390D02*
X157158095Y-123061009D01*
X157158095Y-123061009D02*
X157062857Y-123108628D01*
X157062857Y-123108628D02*
X156681905Y-123108628D01*
X157586667Y-122584819D02*
X158205714Y-122584819D01*
X158205714Y-122584819D02*
X157872381Y-122965771D01*
X157872381Y-122965771D02*
X158015238Y-122965771D01*
X158015238Y-122965771D02*
X158110476Y-123013390D01*
X158110476Y-123013390D02*
X158158095Y-123061009D01*
X158158095Y-123061009D02*
X158205714Y-123156247D01*
X158205714Y-123156247D02*
X158205714Y-123394342D01*
X158205714Y-123394342D02*
X158158095Y-123489580D01*
X158158095Y-123489580D02*
X158110476Y-123537200D01*
X158110476Y-123537200D02*
X158015238Y-123584819D01*
X158015238Y-123584819D02*
X157729524Y-123584819D01*
X157729524Y-123584819D02*
X157634286Y-123537200D01*
X157634286Y-123537200D02*
X157586667Y-123489580D01*
X157333333Y-118584819D02*
X157000000Y-118108628D01*
X156761905Y-118584819D02*
X156761905Y-117584819D01*
X156761905Y-117584819D02*
X157142857Y-117584819D01*
X157142857Y-117584819D02*
X157238095Y-117632438D01*
X157238095Y-117632438D02*
X157285714Y-117680057D01*
X157285714Y-117680057D02*
X157333333Y-117775295D01*
X157333333Y-117775295D02*
X157333333Y-117918152D01*
X157333333Y-117918152D02*
X157285714Y-118013390D01*
X157285714Y-118013390D02*
X157238095Y-118061009D01*
X157238095Y-118061009D02*
X157142857Y-118108628D01*
X157142857Y-118108628D02*
X156761905Y-118108628D01*
X157714286Y-117680057D02*
X157761905Y-117632438D01*
X157761905Y-117632438D02*
X157857143Y-117584819D01*
X157857143Y-117584819D02*
X158095238Y-117584819D01*
X158095238Y-117584819D02*
X158190476Y-117632438D01*
X158190476Y-117632438D02*
X158238095Y-117680057D01*
X158238095Y-117680057D02*
X158285714Y-117775295D01*
X158285714Y-117775295D02*
X158285714Y-117870533D01*
X158285714Y-117870533D02*
X158238095Y-118013390D01*
X158238095Y-118013390D02*
X157666667Y-118584819D01*
X157666667Y-118584819D02*
X158285714Y-118584819D01*
X157333333Y-113584819D02*
X157000000Y-113108628D01*
X156761905Y-113584819D02*
X156761905Y-112584819D01*
X156761905Y-112584819D02*
X157142857Y-112584819D01*
X157142857Y-112584819D02*
X157238095Y-112632438D01*
X157238095Y-112632438D02*
X157285714Y-112680057D01*
X157285714Y-112680057D02*
X157333333Y-112775295D01*
X157333333Y-112775295D02*
X157333333Y-112918152D01*
X157333333Y-112918152D02*
X157285714Y-113013390D01*
X157285714Y-113013390D02*
X157238095Y-113061009D01*
X157238095Y-113061009D02*
X157142857Y-113108628D01*
X157142857Y-113108628D02*
X156761905Y-113108628D01*
X158285714Y-113584819D02*
X157714286Y-113584819D01*
X158000000Y-113584819D02*
X158000000Y-112584819D01*
X158000000Y-112584819D02*
X157904762Y-112727676D01*
X157904762Y-112727676D02*
X157809524Y-112822914D01*
X157809524Y-112822914D02*
X157714286Y-112870533D01*
X171980057Y-122595238D02*
X171932438Y-122690476D01*
X171932438Y-122690476D02*
X171837200Y-122785714D01*
X171837200Y-122785714D02*
X171694342Y-122928571D01*
X171694342Y-122928571D02*
X171646723Y-123023809D01*
X171646723Y-123023809D02*
X171646723Y-123119047D01*
X171884819Y-123071428D02*
X171837200Y-123166666D01*
X171837200Y-123166666D02*
X171741961Y-123261904D01*
X171741961Y-123261904D02*
X171551485Y-123309523D01*
X171551485Y-123309523D02*
X171218152Y-123309523D01*
X171218152Y-123309523D02*
X171027676Y-123261904D01*
X171027676Y-123261904D02*
X170932438Y-123166666D01*
X170932438Y-123166666D02*
X170884819Y-123071428D01*
X170884819Y-123071428D02*
X170884819Y-122880952D01*
X170884819Y-122880952D02*
X170932438Y-122785714D01*
X170932438Y-122785714D02*
X171027676Y-122690476D01*
X171027676Y-122690476D02*
X171218152Y-122642857D01*
X171218152Y-122642857D02*
X171551485Y-122642857D01*
X171551485Y-122642857D02*
X171741961Y-122690476D01*
X171741961Y-122690476D02*
X171837200Y-122785714D01*
X171837200Y-122785714D02*
X171884819Y-122880952D01*
X171884819Y-122880952D02*
X171884819Y-123071428D01*
X171884819Y-121690476D02*
X171884819Y-122261904D01*
X171884819Y-121976190D02*
X170884819Y-121976190D01*
X170884819Y-121976190D02*
X171027676Y-122071428D01*
X171027676Y-122071428D02*
X171122914Y-122166666D01*
X171122914Y-122166666D02*
X171170533Y-122261904D01*
X138861905Y-114254819D02*
X138861905Y-113254819D01*
X139433333Y-114254819D02*
X139004762Y-113683390D01*
X139433333Y-113254819D02*
X138861905Y-113826247D01*
X140385714Y-114254819D02*
X139814286Y-114254819D01*
X140100000Y-114254819D02*
X140100000Y-113254819D01*
X140100000Y-113254819D02*
X140004762Y-113397676D01*
X140004762Y-113397676D02*
X139909524Y-113492914D01*
X139909524Y-113492914D02*
X139814286Y-113540533D01*
X117454819Y-123833333D02*
X118169104Y-123833333D01*
X118169104Y-123833333D02*
X118311961Y-123880952D01*
X118311961Y-123880952D02*
X118407200Y-123976190D01*
X118407200Y-123976190D02*
X118454819Y-124119047D01*
X118454819Y-124119047D02*
X118454819Y-124214285D01*
X117550057Y-123404761D02*
X117502438Y-123357142D01*
X117502438Y-123357142D02*
X117454819Y-123261904D01*
X117454819Y-123261904D02*
X117454819Y-123023809D01*
X117454819Y-123023809D02*
X117502438Y-122928571D01*
X117502438Y-122928571D02*
X117550057Y-122880952D01*
X117550057Y-122880952D02*
X117645295Y-122833333D01*
X117645295Y-122833333D02*
X117740533Y-122833333D01*
X117740533Y-122833333D02*
X117883390Y-122880952D01*
X117883390Y-122880952D02*
X118454819Y-123452380D01*
X118454819Y-123452380D02*
X118454819Y-122833333D01*
X174166666Y-116494819D02*
X174166666Y-117209104D01*
X174166666Y-117209104D02*
X174119047Y-117351961D01*
X174119047Y-117351961D02*
X174023809Y-117447200D01*
X174023809Y-117447200D02*
X173880952Y-117494819D01*
X173880952Y-117494819D02*
X173785714Y-117494819D01*
X175166666Y-117494819D02*
X174595238Y-117494819D01*
X174880952Y-117494819D02*
X174880952Y-116494819D01*
X174880952Y-116494819D02*
X174785714Y-116637676D01*
X174785714Y-116637676D02*
X174690476Y-116732914D01*
X174690476Y-116732914D02*
X174595238Y-116780533D01*
X156761905Y-128484819D02*
X156761905Y-127484819D01*
X156761905Y-127484819D02*
X157000000Y-127484819D01*
X157000000Y-127484819D02*
X157142857Y-127532438D01*
X157142857Y-127532438D02*
X157238095Y-127627676D01*
X157238095Y-127627676D02*
X157285714Y-127722914D01*
X157285714Y-127722914D02*
X157333333Y-127913390D01*
X157333333Y-127913390D02*
X157333333Y-128056247D01*
X157333333Y-128056247D02*
X157285714Y-128246723D01*
X157285714Y-128246723D02*
X157238095Y-128341961D01*
X157238095Y-128341961D02*
X157142857Y-128437200D01*
X157142857Y-128437200D02*
X157000000Y-128484819D01*
X157000000Y-128484819D02*
X156761905Y-128484819D01*
X157666667Y-127484819D02*
X158285714Y-127484819D01*
X158285714Y-127484819D02*
X157952381Y-127865771D01*
X157952381Y-127865771D02*
X158095238Y-127865771D01*
X158095238Y-127865771D02*
X158190476Y-127913390D01*
X158190476Y-127913390D02*
X158238095Y-127961009D01*
X158238095Y-127961009D02*
X158285714Y-128056247D01*
X158285714Y-128056247D02*
X158285714Y-128294342D01*
X158285714Y-128294342D02*
X158238095Y-128389580D01*
X158238095Y-128389580D02*
X158190476Y-128437200D01*
X158190476Y-128437200D02*
X158095238Y-128484819D01*
X158095238Y-128484819D02*
X157809524Y-128484819D01*
X157809524Y-128484819D02*
X157714286Y-128437200D01*
X157714286Y-128437200D02*
X157666667Y-128389580D01*
X152158095Y-128854819D02*
X152158095Y-127854819D01*
X152729523Y-128854819D02*
X152300952Y-128283390D01*
X152729523Y-127854819D02*
X152158095Y-128426247D01*
X167087142Y-126994819D02*
X166753809Y-126518628D01*
X166515714Y-126994819D02*
X166515714Y-125994819D01*
X166515714Y-125994819D02*
X166896666Y-125994819D01*
X166896666Y-125994819D02*
X166991904Y-126042438D01*
X166991904Y-126042438D02*
X167039523Y-126090057D01*
X167039523Y-126090057D02*
X167087142Y-126185295D01*
X167087142Y-126185295D02*
X167087142Y-126328152D01*
X167087142Y-126328152D02*
X167039523Y-126423390D01*
X167039523Y-126423390D02*
X166991904Y-126471009D01*
X166991904Y-126471009D02*
X166896666Y-126518628D01*
X166896666Y-126518628D02*
X166515714Y-126518628D01*
X167515714Y-126471009D02*
X167849047Y-126471009D01*
X167991904Y-126994819D02*
X167515714Y-126994819D01*
X167515714Y-126994819D02*
X167515714Y-125994819D01*
X167515714Y-125994819D02*
X167991904Y-125994819D01*
X168420476Y-126994819D02*
X168420476Y-125994819D01*
X168420476Y-125994819D02*
X168658571Y-125994819D01*
X168658571Y-125994819D02*
X168801428Y-126042438D01*
X168801428Y-126042438D02*
X168896666Y-126137676D01*
X168896666Y-126137676D02*
X168944285Y-126232914D01*
X168944285Y-126232914D02*
X168991904Y-126423390D01*
X168991904Y-126423390D02*
X168991904Y-126566247D01*
X168991904Y-126566247D02*
X168944285Y-126756723D01*
X168944285Y-126756723D02*
X168896666Y-126851961D01*
X168896666Y-126851961D02*
X168801428Y-126947200D01*
X168801428Y-126947200D02*
X168658571Y-126994819D01*
X168658571Y-126994819D02*
X168420476Y-126994819D01*
X166563333Y-118002438D02*
X166468095Y-117954819D01*
X166468095Y-117954819D02*
X166325238Y-117954819D01*
X166325238Y-117954819D02*
X166182381Y-118002438D01*
X166182381Y-118002438D02*
X166087143Y-118097676D01*
X166087143Y-118097676D02*
X166039524Y-118192914D01*
X166039524Y-118192914D02*
X165991905Y-118383390D01*
X165991905Y-118383390D02*
X165991905Y-118526247D01*
X165991905Y-118526247D02*
X166039524Y-118716723D01*
X166039524Y-118716723D02*
X166087143Y-118811961D01*
X166087143Y-118811961D02*
X166182381Y-118907200D01*
X166182381Y-118907200D02*
X166325238Y-118954819D01*
X166325238Y-118954819D02*
X166420476Y-118954819D01*
X166420476Y-118954819D02*
X166563333Y-118907200D01*
X166563333Y-118907200D02*
X166610952Y-118859580D01*
X166610952Y-118859580D02*
X166610952Y-118526247D01*
X166610952Y-118526247D02*
X166420476Y-118526247D01*
X167610952Y-118954819D02*
X167277619Y-118478628D01*
X167039524Y-118954819D02*
X167039524Y-117954819D01*
X167039524Y-117954819D02*
X167420476Y-117954819D01*
X167420476Y-117954819D02*
X167515714Y-118002438D01*
X167515714Y-118002438D02*
X167563333Y-118050057D01*
X167563333Y-118050057D02*
X167610952Y-118145295D01*
X167610952Y-118145295D02*
X167610952Y-118288152D01*
X167610952Y-118288152D02*
X167563333Y-118383390D01*
X167563333Y-118383390D02*
X167515714Y-118431009D01*
X167515714Y-118431009D02*
X167420476Y-118478628D01*
X167420476Y-118478628D02*
X167039524Y-118478628D01*
X168039524Y-118431009D02*
X168372857Y-118431009D01*
X168515714Y-118954819D02*
X168039524Y-118954819D01*
X168039524Y-118954819D02*
X168039524Y-117954819D01*
X168039524Y-117954819D02*
X168515714Y-117954819D01*
X168944286Y-118431009D02*
X169277619Y-118431009D01*
X169420476Y-118954819D02*
X168944286Y-118954819D01*
X168944286Y-118954819D02*
X168944286Y-117954819D01*
X168944286Y-117954819D02*
X169420476Y-117954819D01*
X169849048Y-118954819D02*
X169849048Y-117954819D01*
X169849048Y-117954819D02*
X170420476Y-118954819D01*
X170420476Y-118954819D02*
X170420476Y-117954819D01*
D12*
%TO.C,R3*%
X153380000Y-125500000D02*
X154150000Y-125500000D01*
X161460000Y-125500000D02*
X160690000Y-125500000D01*
X154150000Y-124130000D02*
X160690000Y-124130000D01*
X160690000Y-126870000D01*
X154150000Y-126870000D01*
X154150000Y-124130000D01*
%TO.C,R2*%
X153460000Y-120500000D02*
X154230000Y-120500000D01*
X161540000Y-120500000D02*
X160770000Y-120500000D01*
X154230000Y-119130000D02*
X160770000Y-119130000D01*
X160770000Y-121870000D01*
X154230000Y-121870000D01*
X154230000Y-119130000D01*
%TO.C,R1*%
X153460000Y-115500000D02*
X154230000Y-115500000D01*
X161540000Y-115500000D02*
X160770000Y-115500000D01*
X154230000Y-114130000D02*
X160770000Y-114130000D01*
X160770000Y-116870000D01*
X154230000Y-116870000D01*
X154230000Y-114130000D01*
%TO.C,Q1*%
X166020000Y-120700000D02*
X166020000Y-124300000D01*
X166031522Y-120661522D02*
G75*
G02*
X170470001Y-122500000I1838478J-1838478D01*
G01*
X170470000Y-122500000D02*
G75*
G02*
X166031522Y-124338478I-2600000J0D01*
G01*
%TO.C,K1*%
X149100000Y-130800000D02*
X149100000Y-124200000D01*
X149100000Y-130800000D02*
X129300000Y-130800000D01*
X149100000Y-121800000D02*
X149100000Y-115200000D01*
X145050000Y-122950000D02*
X145850000Y-122950000D01*
X145050000Y-122950000D02*
X145050000Y-119350000D01*
X144150000Y-116950000D02*
X141650000Y-116950000D01*
X143650000Y-124750000D02*
X139650000Y-124750000D01*
X143650000Y-121150000D02*
X143650000Y-124750000D01*
X141650000Y-128950000D02*
X144150000Y-128950000D01*
X141650000Y-128950000D02*
X141650000Y-124750000D01*
X141650000Y-121150000D02*
X141650000Y-116950000D01*
X139650000Y-124750000D02*
X139650000Y-121150000D01*
X139650000Y-121150000D02*
X143650000Y-124750000D01*
X139650000Y-121150000D02*
X143650000Y-121150000D01*
X138250000Y-122950000D02*
X138250000Y-119350000D01*
X138250000Y-122950000D02*
X136750000Y-122950000D01*
X138250000Y-119350000D02*
X145050000Y-119350000D01*
X136750000Y-122950000D02*
X132150000Y-125450000D01*
X133550000Y-127200000D02*
X133550000Y-124700000D01*
X133550000Y-118800000D02*
X133550000Y-121250000D01*
X129300000Y-130800000D02*
X129300000Y-115200000D01*
X129300000Y-115200000D02*
X149100000Y-115200000D01*
D13*
%TO.C,J2*%
X127300000Y-130620000D02*
X127300000Y-115380000D01*
X127300000Y-115380000D02*
X114500000Y-115380000D01*
X114500000Y-115380000D02*
X114500000Y-130620000D01*
X114500000Y-130620000D02*
X127300000Y-130620000D01*
D14*
X122100000Y-131720000D02*
G75*
G02*
X121900000Y-131720000I-100000J0D01*
G01*
X121900000Y-131720000D02*
G75*
G02*
X122100000Y-131720000I100000J0D01*
G01*
D12*
%TO.C,J1*%
X173120000Y-118040000D02*
X174500000Y-118040000D01*
X173120000Y-119420000D02*
X173120000Y-118040000D01*
X173120000Y-120690000D02*
X173120000Y-125880000D01*
X173120000Y-120690000D02*
X175880000Y-120690000D01*
X173120000Y-125880000D02*
X175880000Y-125880000D01*
X175880000Y-120690000D02*
X175880000Y-125880000D01*
%TO.C,D3*%
X153760000Y-130500000D02*
X154780000Y-130500000D01*
X155560000Y-129030000D02*
X155560000Y-131970000D01*
X155680000Y-129030000D02*
X155680000Y-131970000D01*
X155800000Y-129030000D02*
X155800000Y-131970000D01*
X161240000Y-130500000D02*
X160220000Y-130500000D01*
X154780000Y-129030000D02*
X160220000Y-129030000D01*
X160220000Y-131970000D01*
X154780000Y-131970000D01*
X154780000Y-129030000D01*
%TO.C,RED*%
X166170000Y-128264000D02*
X166170000Y-128420000D01*
X166170000Y-130580000D02*
X166170000Y-130736000D01*
X166170000Y-128264484D02*
G75*
G02*
X169401437Y-128420000I1560000J-1235516D01*
G01*
X166689039Y-128420000D02*
G75*
G02*
X168770961Y-128420000I1040961J-1080000D01*
G01*
X168770961Y-130580000D02*
G75*
G02*
X166689039Y-130580000I-1040961J1080000D01*
G01*
X169401437Y-130580000D02*
G75*
G02*
X166170000Y-130735516I-1671437J1080000D01*
G01*
%TO.C,GREEN*%
X166670000Y-114264000D02*
X166670000Y-114420000D01*
X166670000Y-116580000D02*
X166670000Y-116736000D01*
X166670000Y-114264484D02*
G75*
G02*
X169901437Y-114420000I1560000J-1235516D01*
G01*
X167189039Y-114420000D02*
G75*
G02*
X169270961Y-114420000I1040961J-1080000D01*
G01*
X169270961Y-116580000D02*
G75*
G02*
X167189039Y-116580000I-1040961J1080000D01*
G01*
X169901437Y-116580000D02*
G75*
G02*
X166670000Y-116735516I-1671437J1080000D01*
G01*
%TD*%
M02*
