%TF.GenerationSoftware,KiCad,Pcbnew,9.0.4*%
%TF.CreationDate,2025-10-31T12:34:43+05:30*%
%TF.ProjectId,5V_relay_module,35565f72-656c-4617-995f-6d6f64756c65,rev?*%
%TF.SameCoordinates,Original*%
%TF.FileFunction,Copper,L2,Bot*%
%TF.FilePolarity,Positive*%
%FSLAX46Y46*%
G04 Gerber Fmt 4.6, Leading zero omitted, Abs format (unit mm)*
G04 Created by KiCad (PCBNEW 9.0.4) date 2025-10-31 12:34:43*
%MOMM*%
%LPD*%
G01*
G04 APERTURE LIST*
G04 Aperture macros list*
%AMRoundRect*
0 Rectangle with rounded corners*
0 $1 Rounding radius*
0 $2 $3 $4 $5 $6 $7 $8 $9 X,Y pos of 4 corners*
0 Add a 4 corners polygon primitive as box body*
4,1,4,$2,$3,$4,$5,$6,$7,$8,$9,$2,$3,0*
0 Add four circle primitives for the rounded corners*
1,1,$1+$1,$2,$3*
1,1,$1+$1,$4,$5*
1,1,$1+$1,$6,$7*
1,1,$1+$1,$8,$9*
0 Add four rect primitives between the rounded corners*
20,1,$1+$1,$2,$3,$4,$5,0*
20,1,$1+$1,$4,$5,$6,$7,0*
20,1,$1+$1,$6,$7,$8,$9,0*
20,1,$1+$1,$8,$9,$2,$3,0*%
G04 Aperture macros list end*
%TA.AperFunction,ComponentPad*%
%ADD10C,1.600000*%
%TD*%
%TA.AperFunction,ComponentPad*%
%ADD11R,1.500000X1.050000*%
%TD*%
%TA.AperFunction,ComponentPad*%
%ADD12O,1.500000X1.050000*%
%TD*%
%TA.AperFunction,ComponentPad*%
%ADD13C,3.000000*%
%TD*%
%TA.AperFunction,ComponentPad*%
%ADD14C,2.500000*%
%TD*%
%TA.AperFunction,ComponentPad*%
%ADD15R,1.950000X1.950000*%
%TD*%
%TA.AperFunction,ComponentPad*%
%ADD16C,1.950000*%
%TD*%
%TA.AperFunction,ComponentPad*%
%ADD17R,1.700000X1.700000*%
%TD*%
%TA.AperFunction,ComponentPad*%
%ADD18C,1.700000*%
%TD*%
%TA.AperFunction,ComponentPad*%
%ADD19RoundRect,0.249999X-0.850001X-0.850001X0.850001X-0.850001X0.850001X0.850001X-0.850001X0.850001X0*%
%TD*%
%TA.AperFunction,ComponentPad*%
%ADD20C,2.200000*%
%TD*%
%TA.AperFunction,ComponentPad*%
%ADD21R,1.800000X1.800000*%
%TD*%
%TA.AperFunction,ComponentPad*%
%ADD22C,1.800000*%
%TD*%
%TA.AperFunction,ViaPad*%
%ADD23C,0.600000*%
%TD*%
%TA.AperFunction,Conductor*%
%ADD24C,0.508000*%
%TD*%
G04 APERTURE END LIST*
D10*
%TO.P,R3,1*%
%TO.N,/VCC*%
X152340000Y-125500000D03*
%TO.P,R3,2*%
%TO.N,Net-(D2-A)*%
X162500000Y-125500000D03*
%TD*%
%TO.P,R2,1*%
%TO.N,/IN*%
X152420000Y-120500000D03*
%TO.P,R2,2*%
%TO.N,Net-(Q1-B)*%
X162580000Y-120500000D03*
%TD*%
%TO.P,R1,1*%
%TO.N,/VCC*%
X152420000Y-115500000D03*
%TO.P,R1,2*%
%TO.N,Net-(D1-A)*%
X162580000Y-115500000D03*
%TD*%
D11*
%TO.P,Q1,1,C*%
%TO.N,Net-(D2-K)*%
X167870000Y-121230000D03*
D12*
%TO.P,Q1,2,B*%
%TO.N,Net-(Q1-B)*%
X167870000Y-122500000D03*
%TO.P,Q1,3,E*%
%TO.N,/GND*%
X167870000Y-123770000D03*
%TD*%
D13*
%TO.P,K1,1*%
%TO.N,/VCC*%
X147700000Y-123000000D03*
D14*
%TO.P,K1,2*%
%TO.N,NC*%
X145750000Y-116950000D03*
D13*
%TO.P,K1,3*%
%TO.N,NO*%
X133550000Y-116950000D03*
%TO.P,K1,4*%
%TO.N,C*%
X133500000Y-129000000D03*
D14*
%TO.P,K1,5*%
%TO.N,Net-(D2-K)*%
X145750000Y-128950000D03*
%TD*%
D15*
%TO.P,J2,1,Pin_1*%
%TO.N,NO*%
X122000000Y-128080000D03*
D16*
%TO.P,J2,2,Pin_2*%
%TO.N,C*%
X122000000Y-123000000D03*
%TO.P,J2,3,Pin_3*%
%TO.N,NC*%
X122000000Y-117920000D03*
%TD*%
D17*
%TO.P,J1,1,Pin_1*%
%TO.N,/VCC*%
X174500000Y-119420000D03*
D18*
%TO.P,J1,2,Pin_2*%
%TO.N,/GND*%
X174500000Y-121960000D03*
%TO.P,J1,3,Pin_3*%
%TO.N,/IN*%
X174500000Y-124500000D03*
%TD*%
D19*
%TO.P,D3,1,K*%
%TO.N,/VCC*%
X152420000Y-130500000D03*
D20*
%TO.P,D3,2,A*%
%TO.N,Net-(D2-K)*%
X162580000Y-130500000D03*
%TD*%
D21*
%TO.P,RED,1,K*%
%TO.N,Net-(D2-K)*%
X166460000Y-129500000D03*
D22*
%TO.P,RED,2,A*%
%TO.N,Net-(D2-A)*%
X169000000Y-129500000D03*
%TD*%
D21*
%TO.P,GREEN,1,K*%
%TO.N,/GND*%
X166960000Y-115500000D03*
D22*
%TO.P,GREEN,2,A*%
%TO.N,Net-(D1-A)*%
X169500000Y-115500000D03*
%TD*%
D23*
%TO.N,/VCC*%
X157000000Y-114000000D03*
X173500000Y-114500000D03*
%TO.N,Net-(D2-K)*%
X165500000Y-119000000D03*
X164500000Y-128000000D03*
X155000000Y-128000000D03*
%TD*%
D24*
%TO.N,/VCC*%
X173000000Y-114000000D02*
X157000000Y-114000000D01*
X173500000Y-114500000D02*
X173000000Y-114000000D01*
%TO.N,Net-(D2-K)*%
X146700000Y-128000000D02*
X145750000Y-128950000D01*
X155000000Y-128000000D02*
X146700000Y-128000000D01*
X164500000Y-120000000D02*
X165500000Y-119000000D01*
X164500000Y-128000000D02*
X164500000Y-120000000D01*
%TD*%
%TA.AperFunction,Conductor*%
%TO.N,/GND*%
G36*
X176942539Y-112520185D02*
G01*
X176988294Y-112572989D01*
X176999500Y-112624500D01*
X176999500Y-132375500D01*
X176979815Y-132442539D01*
X176927011Y-132488294D01*
X176875500Y-132499500D01*
X134905716Y-132499500D01*
X134838677Y-132479815D01*
X134792922Y-132427011D01*
X134782978Y-132357853D01*
X134812003Y-132294297D01*
X134858263Y-132260939D01*
X135012160Y-132197193D01*
X135318258Y-132033580D01*
X135606845Y-131840752D01*
X135875143Y-131620566D01*
X136120566Y-131375143D01*
X136340752Y-131106845D01*
X136533580Y-130818258D01*
X136697193Y-130512160D01*
X136830015Y-130191499D01*
X136930768Y-129859363D01*
X136930770Y-129859353D01*
X136930773Y-129859342D01*
X136970194Y-129661155D01*
X136998480Y-129518950D01*
X137032500Y-129173541D01*
X137032500Y-128835258D01*
X143999500Y-128835258D01*
X143999500Y-129064741D01*
X144013824Y-129173537D01*
X144029452Y-129292238D01*
X144073692Y-129457344D01*
X144088842Y-129513887D01*
X144176650Y-129725876D01*
X144176657Y-129725890D01*
X144291392Y-129924617D01*
X144431081Y-130106661D01*
X144431089Y-130106670D01*
X144593330Y-130268911D01*
X144593338Y-130268918D01*
X144593339Y-130268919D01*
X144609313Y-130281176D01*
X144775382Y-130408607D01*
X144775385Y-130408608D01*
X144775388Y-130408611D01*
X144974112Y-130523344D01*
X144974117Y-130523346D01*
X144974123Y-130523349D01*
X145065480Y-130561190D01*
X145186113Y-130611158D01*
X145407762Y-130670548D01*
X145635266Y-130700500D01*
X145635273Y-130700500D01*
X145864727Y-130700500D01*
X145864734Y-130700500D01*
X146092238Y-130670548D01*
X146313887Y-130611158D01*
X146525888Y-130523344D01*
X146724612Y-130408611D01*
X146906661Y-130268919D01*
X146906665Y-130268914D01*
X146906670Y-130268911D01*
X147068911Y-130106670D01*
X147068914Y-130106665D01*
X147068919Y-130106661D01*
X147208611Y-129924612D01*
X147323344Y-129725888D01*
X147411158Y-129513887D01*
X147470548Y-129292238D01*
X147500500Y-129064734D01*
X147500500Y-128878500D01*
X147520185Y-128811461D01*
X147572989Y-128765706D01*
X147624500Y-128754500D01*
X151155003Y-128754500D01*
X151222042Y-128774185D01*
X151267797Y-128826989D01*
X151277741Y-128896147D01*
X151248716Y-128959703D01*
X151220101Y-128984037D01*
X151167052Y-129016759D01*
X151101342Y-129057289D01*
X150977289Y-129181342D01*
X150885187Y-129330662D01*
X150885186Y-129330665D01*
X150830001Y-129497202D01*
X150830001Y-129497203D01*
X150830000Y-129497203D01*
X150819500Y-129599982D01*
X150819500Y-131400017D01*
X150830000Y-131502796D01*
X150885185Y-131669332D01*
X150885186Y-131669335D01*
X150977288Y-131818656D01*
X151101344Y-131942712D01*
X151250665Y-132034814D01*
X151417202Y-132089999D01*
X151519990Y-132100500D01*
X151519995Y-132100500D01*
X153320005Y-132100500D01*
X153320010Y-132100500D01*
X153422798Y-132089999D01*
X153589335Y-132034814D01*
X153738656Y-131942712D01*
X153862712Y-131818656D01*
X153954814Y-131669335D01*
X154009999Y-131502798D01*
X154020500Y-131400010D01*
X154020500Y-130374038D01*
X160979500Y-130374038D01*
X160979500Y-130625962D01*
X160991306Y-130700499D01*
X161018910Y-130874785D01*
X161096760Y-131114383D01*
X161211132Y-131338848D01*
X161359201Y-131542649D01*
X161359205Y-131542654D01*
X161537345Y-131720794D01*
X161537350Y-131720798D01*
X161702447Y-131840747D01*
X161741155Y-131868870D01*
X161884184Y-131941747D01*
X161965616Y-131983239D01*
X161965618Y-131983239D01*
X161965621Y-131983241D01*
X162205215Y-132061090D01*
X162454038Y-132100500D01*
X162454039Y-132100500D01*
X162705961Y-132100500D01*
X162705962Y-132100500D01*
X162954785Y-132061090D01*
X163194379Y-131983241D01*
X163418845Y-131868870D01*
X163622656Y-131720793D01*
X163800793Y-131542656D01*
X163948870Y-131338845D01*
X164063241Y-131114379D01*
X164141090Y-130874785D01*
X164180500Y-130625962D01*
X164180500Y-130374038D01*
X164141090Y-130125215D01*
X164063241Y-129885621D01*
X164063239Y-129885618D01*
X164063239Y-129885616D01*
X163981853Y-129725888D01*
X163948870Y-129661155D01*
X163845557Y-129518956D01*
X163800798Y-129457350D01*
X163800794Y-129457345D01*
X163622654Y-129279205D01*
X163622649Y-129279201D01*
X163418848Y-129131132D01*
X163418847Y-129131131D01*
X163418845Y-129131130D01*
X163348747Y-129095413D01*
X163194383Y-129016760D01*
X162954785Y-128938910D01*
X162911732Y-128932091D01*
X162705962Y-128899500D01*
X162454038Y-128899500D01*
X162387738Y-128910001D01*
X162205214Y-128938910D01*
X161965616Y-129016760D01*
X161741151Y-129131132D01*
X161537350Y-129279201D01*
X161537345Y-129279205D01*
X161359205Y-129457345D01*
X161359201Y-129457350D01*
X161211132Y-129661151D01*
X161096760Y-129885616D01*
X161018910Y-130125214D01*
X160996149Y-130268919D01*
X160979500Y-130374038D01*
X154020500Y-130374038D01*
X154020500Y-129599990D01*
X154009999Y-129497202D01*
X153954814Y-129330665D01*
X153862712Y-129181344D01*
X153738656Y-129057288D01*
X153619899Y-128984038D01*
X153573176Y-128932091D01*
X153561953Y-128863128D01*
X153589797Y-128799046D01*
X153647866Y-128760190D01*
X153684997Y-128754500D01*
X154705053Y-128754500D01*
X154752501Y-128763937D01*
X154766503Y-128769737D01*
X154766508Y-128769738D01*
X154766511Y-128769739D01*
X154921153Y-128800499D01*
X154921156Y-128800500D01*
X154921158Y-128800500D01*
X155078844Y-128800500D01*
X155078845Y-128800499D01*
X155233497Y-128769737D01*
X155379179Y-128709394D01*
X155510289Y-128621789D01*
X155621789Y-128510289D01*
X155709394Y-128379179D01*
X155769737Y-128233497D01*
X155800500Y-128078842D01*
X155800500Y-127921158D01*
X155800500Y-127921155D01*
X155800499Y-127921153D01*
X155778091Y-127808501D01*
X155769737Y-127766503D01*
X155769735Y-127766498D01*
X155709397Y-127620827D01*
X155709390Y-127620814D01*
X155621789Y-127489711D01*
X155621786Y-127489707D01*
X155510292Y-127378213D01*
X155510287Y-127378209D01*
X155379185Y-127290609D01*
X155379172Y-127290602D01*
X155233501Y-127230264D01*
X155233489Y-127230261D01*
X155078845Y-127199500D01*
X155078842Y-127199500D01*
X154921158Y-127199500D01*
X154921155Y-127199500D01*
X154766511Y-127230260D01*
X154766506Y-127230262D01*
X154766504Y-127230262D01*
X154766503Y-127230263D01*
X154752501Y-127236062D01*
X154705053Y-127245500D01*
X146780446Y-127245500D01*
X146780426Y-127245499D01*
X146774312Y-127245499D01*
X146625688Y-127245499D01*
X146625686Y-127245499D01*
X146511230Y-127268266D01*
X146511224Y-127268267D01*
X146504105Y-127269684D01*
X146479920Y-127274495D01*
X146441025Y-127290606D01*
X146436489Y-127292484D01*
X146436473Y-127292490D01*
X146427034Y-127296400D01*
X146357564Y-127303867D01*
X146332132Y-127296399D01*
X146313900Y-127288847D01*
X146313894Y-127288844D01*
X146313887Y-127288842D01*
X146092238Y-127229452D01*
X146054215Y-127224446D01*
X145864741Y-127199500D01*
X145864734Y-127199500D01*
X145635266Y-127199500D01*
X145635258Y-127199500D01*
X145418715Y-127228009D01*
X145407762Y-127229452D01*
X145314076Y-127254554D01*
X145186112Y-127288842D01*
X144974123Y-127376650D01*
X144974109Y-127376657D01*
X144775382Y-127491392D01*
X144593338Y-127631081D01*
X144431081Y-127793338D01*
X144291392Y-127975382D01*
X144176657Y-128174109D01*
X144176650Y-128174123D01*
X144088842Y-128386112D01*
X144029453Y-128607759D01*
X144029451Y-128607770D01*
X143999500Y-128835258D01*
X137032500Y-128835258D01*
X137032500Y-128826459D01*
X136998480Y-128481050D01*
X136951021Y-128242454D01*
X136930773Y-128140657D01*
X136930770Y-128140646D01*
X136930769Y-128140643D01*
X136930768Y-128140637D01*
X136830015Y-127808501D01*
X136697193Y-127487840D01*
X136637764Y-127376657D01*
X136533586Y-127181753D01*
X136533585Y-127181751D01*
X136533580Y-127181742D01*
X136340752Y-126893155D01*
X136120566Y-126624857D01*
X136120565Y-126624856D01*
X136120561Y-126624851D01*
X135875148Y-126379438D01*
X135606850Y-126159252D01*
X135606849Y-126159251D01*
X135606845Y-126159248D01*
X135318258Y-125966420D01*
X135318253Y-125966417D01*
X135318246Y-125966413D01*
X135012167Y-125802810D01*
X135012162Y-125802808D01*
X134691500Y-125669985D01*
X134359353Y-125569229D01*
X134359342Y-125569226D01*
X134083669Y-125514393D01*
X134018956Y-125501521D01*
X134018939Y-125501518D01*
X133757739Y-125475792D01*
X133673541Y-125467500D01*
X133326459Y-125467500D01*
X133248588Y-125475169D01*
X132981060Y-125501518D01*
X132981043Y-125501521D01*
X132640657Y-125569226D01*
X132640646Y-125569229D01*
X132308499Y-125669985D01*
X131987837Y-125802808D01*
X131987832Y-125802810D01*
X131681753Y-125966413D01*
X131681735Y-125966424D01*
X131393163Y-126159242D01*
X131393149Y-126159252D01*
X131124851Y-126379438D01*
X130879438Y-126624851D01*
X130659252Y-126893149D01*
X130659242Y-126893163D01*
X130466424Y-127181735D01*
X130466413Y-127181753D01*
X130302810Y-127487832D01*
X130302808Y-127487837D01*
X130169985Y-127808499D01*
X130069229Y-128140646D01*
X130069226Y-128140657D01*
X130001521Y-128481043D01*
X130001518Y-128481060D01*
X129979091Y-128708771D01*
X129967500Y-128826459D01*
X129967500Y-129173541D01*
X129968269Y-129181344D01*
X130001518Y-129518939D01*
X130001521Y-129518956D01*
X130069226Y-129859342D01*
X130069229Y-129859353D01*
X130169985Y-130191500D01*
X130202050Y-130268911D01*
X130290342Y-130482068D01*
X130302808Y-130512162D01*
X130302810Y-130512167D01*
X130466413Y-130818246D01*
X130466424Y-130818264D01*
X130659242Y-131106836D01*
X130659252Y-131106850D01*
X130879438Y-131375148D01*
X131124851Y-131620561D01*
X131124856Y-131620565D01*
X131124857Y-131620566D01*
X131393155Y-131840752D01*
X131681742Y-132033580D01*
X131681751Y-132033585D01*
X131681753Y-132033586D01*
X131987832Y-132197189D01*
X131987834Y-132197189D01*
X131987840Y-132197193D01*
X132141737Y-132260939D01*
X132196140Y-132304780D01*
X132218205Y-132371074D01*
X132200926Y-132438773D01*
X132149789Y-132486384D01*
X132094284Y-132499500D01*
X113624500Y-132499500D01*
X113557461Y-132479815D01*
X113511706Y-132427011D01*
X113500500Y-132375500D01*
X113500500Y-117751097D01*
X118992500Y-117751097D01*
X118992500Y-118088902D01*
X119030319Y-118424556D01*
X119030321Y-118424572D01*
X119105486Y-118753894D01*
X119105490Y-118753906D01*
X119217051Y-119072727D01*
X119217057Y-119072741D01*
X119363616Y-119377074D01*
X119368659Y-119385100D01*
X119543336Y-119663096D01*
X119645142Y-119790757D01*
X119753947Y-119927194D01*
X119992805Y-120166052D01*
X120239836Y-120363053D01*
X120279976Y-120420241D01*
X120282826Y-120490053D01*
X120247481Y-120550323D01*
X120239836Y-120556947D01*
X119992805Y-120753947D01*
X119753947Y-120992805D01*
X119543335Y-121256905D01*
X119363616Y-121542925D01*
X119217057Y-121847258D01*
X119217051Y-121847272D01*
X119105490Y-122166093D01*
X119105486Y-122166105D01*
X119030321Y-122495427D01*
X119030319Y-122495443D01*
X118992500Y-122831097D01*
X118992500Y-123168902D01*
X119030319Y-123504556D01*
X119030321Y-123504572D01*
X119105486Y-123833894D01*
X119105490Y-123833906D01*
X119217051Y-124152727D01*
X119217057Y-124152741D01*
X119363616Y-124457074D01*
X119363618Y-124457077D01*
X119543336Y-124743096D01*
X119667185Y-124898398D01*
X119753947Y-125007194D01*
X119948663Y-125201910D01*
X119982148Y-125263233D01*
X119977164Y-125332925D01*
X119935292Y-125388858D01*
X119928517Y-125393586D01*
X119798830Y-125477805D01*
X119798822Y-125477811D01*
X119584296Y-125664296D01*
X119397811Y-125878822D01*
X119397805Y-125878830D01*
X119242997Y-126117214D01*
X119242994Y-126117219D01*
X119122863Y-126374840D01*
X119039756Y-126646673D01*
X118995290Y-126927415D01*
X118995289Y-126927427D01*
X118992500Y-126991324D01*
X118992500Y-129168675D01*
X118995289Y-129232572D01*
X118995290Y-129232584D01*
X119039756Y-129513326D01*
X119122863Y-129785159D01*
X119242994Y-130042780D01*
X119242997Y-130042785D01*
X119389849Y-130268918D01*
X119397810Y-130281176D01*
X119584296Y-130495704D01*
X119798824Y-130682190D01*
X120037218Y-130837005D01*
X120294839Y-130957136D01*
X120566671Y-131040243D01*
X120718990Y-131064368D01*
X120847415Y-131084709D01*
X120847418Y-131084709D01*
X120847423Y-131084710D01*
X120898545Y-131086942D01*
X120911325Y-131087500D01*
X120911326Y-131087500D01*
X123088675Y-131087500D01*
X123099324Y-131087035D01*
X123152577Y-131084710D01*
X123152582Y-131084709D01*
X123152584Y-131084709D01*
X123204850Y-131076430D01*
X123433329Y-131040243D01*
X123705161Y-130957136D01*
X123962782Y-130837005D01*
X124201176Y-130682190D01*
X124415704Y-130495704D01*
X124602190Y-130281176D01*
X124757005Y-130042782D01*
X124877136Y-129785161D01*
X124960243Y-129513329D01*
X124996430Y-129284850D01*
X125004709Y-129232584D01*
X125004710Y-129232572D01*
X125007500Y-129168675D01*
X125007500Y-126991324D01*
X125004710Y-126927427D01*
X125004709Y-126927415D01*
X124960243Y-126646673D01*
X124960243Y-126646671D01*
X124877136Y-126374839D01*
X124757005Y-126117218D01*
X124602190Y-125878824D01*
X124415704Y-125664296D01*
X124201176Y-125477810D01*
X124201173Y-125477808D01*
X124201169Y-125477805D01*
X124077737Y-125397648D01*
X151039500Y-125397648D01*
X151039500Y-125602351D01*
X151071522Y-125804534D01*
X151134781Y-125999223D01*
X151227715Y-126181613D01*
X151348028Y-126347213D01*
X151492786Y-126491971D01*
X151647749Y-126604556D01*
X151658390Y-126612287D01*
X151774607Y-126671503D01*
X151840776Y-126705218D01*
X151840778Y-126705218D01*
X151840781Y-126705220D01*
X151945137Y-126739127D01*
X152035465Y-126768477D01*
X152136557Y-126784488D01*
X152237648Y-126800500D01*
X152237649Y-126800500D01*
X152442351Y-126800500D01*
X152442352Y-126800500D01*
X152644534Y-126768477D01*
X152839219Y-126705220D01*
X153021610Y-126612287D01*
X153114590Y-126544732D01*
X153187213Y-126491971D01*
X153187215Y-126491968D01*
X153187219Y-126491966D01*
X153331966Y-126347219D01*
X153331968Y-126347215D01*
X153331971Y-126347213D01*
X153392180Y-126264341D01*
X153452287Y-126181610D01*
X153545220Y-125999219D01*
X153608477Y-125804534D01*
X153640500Y-125602352D01*
X153640500Y-125397648D01*
X161199500Y-125397648D01*
X161199500Y-125602351D01*
X161231522Y-125804534D01*
X161294781Y-125999223D01*
X161387715Y-126181613D01*
X161508028Y-126347213D01*
X161652786Y-126491971D01*
X161807749Y-126604556D01*
X161818390Y-126612287D01*
X161934607Y-126671503D01*
X162000776Y-126705218D01*
X162000778Y-126705218D01*
X162000781Y-126705220D01*
X162105137Y-126739127D01*
X162195465Y-126768477D01*
X162296557Y-126784488D01*
X162397648Y-126800500D01*
X162397649Y-126800500D01*
X162602351Y-126800500D01*
X162602352Y-126800500D01*
X162804534Y-126768477D01*
X162999219Y-126705220D01*
X163181610Y-126612287D01*
X163274590Y-126544732D01*
X163347213Y-126491971D01*
X163347215Y-126491968D01*
X163347219Y-126491966D01*
X163491966Y-126347219D01*
X163521181Y-126307008D01*
X163576511Y-126264341D01*
X163646124Y-126258361D01*
X163707919Y-126290967D01*
X163742277Y-126351805D01*
X163745500Y-126379892D01*
X163745500Y-127705053D01*
X163736062Y-127752501D01*
X163730265Y-127766498D01*
X163730262Y-127766506D01*
X163730260Y-127766511D01*
X163699500Y-127921153D01*
X163699500Y-128078846D01*
X163730261Y-128233489D01*
X163730264Y-128233501D01*
X163790602Y-128379172D01*
X163790609Y-128379185D01*
X163878210Y-128510288D01*
X163878213Y-128510292D01*
X163989707Y-128621786D01*
X163989711Y-128621789D01*
X164120814Y-128709390D01*
X164120827Y-128709397D01*
X164229717Y-128754500D01*
X164266503Y-128769737D01*
X164413848Y-128799046D01*
X164421153Y-128800499D01*
X164421156Y-128800500D01*
X164421158Y-128800500D01*
X164578844Y-128800500D01*
X164578845Y-128800499D01*
X164733497Y-128769737D01*
X164789120Y-128746697D01*
X164884808Y-128707063D01*
X164885515Y-128708771D01*
X164945444Y-128696291D01*
X165010689Y-128721289D01*
X165052062Y-128777592D01*
X165059500Y-128819892D01*
X165059500Y-130447870D01*
X165059501Y-130447876D01*
X165065908Y-130507483D01*
X165116202Y-130642328D01*
X165116206Y-130642335D01*
X165202452Y-130757544D01*
X165202455Y-130757547D01*
X165317664Y-130843793D01*
X165317671Y-130843797D01*
X165452517Y-130894091D01*
X165452516Y-130894091D01*
X165459444Y-130894835D01*
X165512127Y-130900500D01*
X167407872Y-130900499D01*
X167467483Y-130894091D01*
X167602331Y-130843796D01*
X167717546Y-130757546D01*
X167803796Y-130642331D01*
X167831429Y-130568243D01*
X167833601Y-130562420D01*
X167875471Y-130506486D01*
X167940936Y-130482068D01*
X168009209Y-130496919D01*
X168037464Y-130518071D01*
X168087636Y-130568243D01*
X168087641Y-130568247D01*
X168167080Y-130625962D01*
X168265978Y-130697815D01*
X168394375Y-130763237D01*
X168462393Y-130797895D01*
X168462396Y-130797896D01*
X168525084Y-130818264D01*
X168672049Y-130866015D01*
X168889778Y-130900500D01*
X168889779Y-130900500D01*
X169110221Y-130900500D01*
X169110222Y-130900500D01*
X169327951Y-130866015D01*
X169537606Y-130797895D01*
X169734022Y-130697815D01*
X169912365Y-130568242D01*
X170068242Y-130412365D01*
X170197815Y-130234022D01*
X170297895Y-130037606D01*
X170366015Y-129827951D01*
X170400500Y-129610222D01*
X170400500Y-129389778D01*
X170366015Y-129172049D01*
X170304928Y-128984039D01*
X170297896Y-128962396D01*
X170297895Y-128962393D01*
X170233115Y-128835258D01*
X170197815Y-128765978D01*
X170139501Y-128685715D01*
X170068247Y-128587641D01*
X170068243Y-128587636D01*
X169912363Y-128431756D01*
X169912358Y-128431752D01*
X169734025Y-128302187D01*
X169734024Y-128302186D01*
X169734022Y-128302185D01*
X169616791Y-128242452D01*
X169537606Y-128202104D01*
X169537603Y-128202103D01*
X169327952Y-128133985D01*
X169219086Y-128116742D01*
X169110222Y-128099500D01*
X168889778Y-128099500D01*
X168817201Y-128110995D01*
X168672047Y-128133985D01*
X168462396Y-128202103D01*
X168462393Y-128202104D01*
X168265974Y-128302187D01*
X168087641Y-128431752D01*
X168087636Y-128431756D01*
X168037463Y-128481929D01*
X167976140Y-128515413D01*
X167906448Y-128510428D01*
X167850515Y-128468557D01*
X167833601Y-128437580D01*
X167803797Y-128357671D01*
X167803793Y-128357664D01*
X167717547Y-128242455D01*
X167717544Y-128242452D01*
X167602335Y-128156206D01*
X167602328Y-128156202D01*
X167467482Y-128105908D01*
X167467483Y-128105908D01*
X167407883Y-128099501D01*
X167407881Y-128099500D01*
X167407873Y-128099500D01*
X167407864Y-128099500D01*
X165512129Y-128099500D01*
X165512123Y-128099501D01*
X165444804Y-128106738D01*
X165444654Y-128105342D01*
X165383244Y-128102050D01*
X165326573Y-128061182D01*
X165300993Y-127996163D01*
X165300500Y-127985114D01*
X165300500Y-127921155D01*
X165300499Y-127921153D01*
X165269739Y-127766511D01*
X165269738Y-127766508D01*
X165269737Y-127766503D01*
X165263937Y-127752501D01*
X165254500Y-127705053D01*
X165254500Y-120657135D01*
X166619500Y-120657135D01*
X166619500Y-121802870D01*
X166619501Y-121802876D01*
X166625908Y-121862483D01*
X166676202Y-121997328D01*
X166676203Y-121997330D01*
X166676204Y-121997331D01*
X166677028Y-121998432D01*
X166677509Y-121999721D01*
X166680454Y-122005114D01*
X166679678Y-122005537D01*
X166701448Y-122063895D01*
X166692325Y-122120198D01*
X166658910Y-122200868D01*
X166658907Y-122200880D01*
X166619500Y-122398992D01*
X166619500Y-122601007D01*
X166658907Y-122799119D01*
X166658909Y-122799127D01*
X166736212Y-122985754D01*
X166790204Y-123066558D01*
X166811081Y-123133235D01*
X166792596Y-123200615D01*
X166790204Y-123204337D01*
X166736655Y-123284479D01*
X166736654Y-123284481D01*
X166659390Y-123471016D01*
X166659387Y-123471025D01*
X166649647Y-123520000D01*
X167504134Y-123520000D01*
X167528326Y-123522383D01*
X167531123Y-123522939D01*
X167543995Y-123525499D01*
X167543996Y-123525500D01*
X167543997Y-123525500D01*
X167584170Y-123525500D01*
X167569925Y-123539745D01*
X167520556Y-123625255D01*
X167495000Y-123720630D01*
X167495000Y-123819370D01*
X167520556Y-123914745D01*
X167569925Y-124000255D01*
X167589670Y-124020000D01*
X166649647Y-124020000D01*
X166659387Y-124068974D01*
X166659390Y-124068983D01*
X166736652Y-124255513D01*
X166736659Y-124255526D01*
X166848829Y-124423399D01*
X166848832Y-124423403D01*
X166991596Y-124566167D01*
X166991600Y-124566170D01*
X167159473Y-124678340D01*
X167159486Y-124678347D01*
X167346016Y-124755609D01*
X167346025Y-124755612D01*
X167544041Y-124794999D01*
X167544045Y-124795000D01*
X167620000Y-124795000D01*
X167620000Y-124050330D01*
X167639745Y-124070075D01*
X167725255Y-124119444D01*
X167820630Y-124145000D01*
X167919370Y-124145000D01*
X168014745Y-124119444D01*
X168100255Y-124070075D01*
X168120000Y-124050330D01*
X168120000Y-124795000D01*
X168195955Y-124795000D01*
X168195958Y-124794999D01*
X168393974Y-124755612D01*
X168393983Y-124755609D01*
X168580513Y-124678347D01*
X168580526Y-124678340D01*
X168748399Y-124566170D01*
X168748403Y-124566167D01*
X168891167Y-124423403D01*
X168891170Y-124423399D01*
X168960294Y-124319950D01*
X169003340Y-124255526D01*
X169003347Y-124255513D01*
X169080609Y-124068983D01*
X169080612Y-124068974D01*
X169090353Y-124020000D01*
X168150330Y-124020000D01*
X168170075Y-124000255D01*
X168219444Y-123914745D01*
X168245000Y-123819370D01*
X168245000Y-123720630D01*
X168219444Y-123625255D01*
X168170075Y-123539745D01*
X168155830Y-123525500D01*
X168196004Y-123525500D01*
X168196004Y-123525499D01*
X168209473Y-123522820D01*
X168211674Y-123522383D01*
X168235866Y-123520000D01*
X169090353Y-123520000D01*
X169080612Y-123471025D01*
X169080609Y-123471016D01*
X169003347Y-123284486D01*
X169003343Y-123284479D01*
X168949795Y-123204340D01*
X168928917Y-123137662D01*
X168947401Y-123070282D01*
X168949733Y-123066652D01*
X169003786Y-122985756D01*
X169081091Y-122799127D01*
X169120500Y-122601003D01*
X169120500Y-122398997D01*
X169081091Y-122200873D01*
X169047673Y-122120198D01*
X169040205Y-122050730D01*
X169045145Y-122031932D01*
X169051463Y-122013804D01*
X169063796Y-121997331D01*
X169114091Y-121862483D01*
X169120500Y-121802873D01*
X169120499Y-120657128D01*
X169114091Y-120597517D01*
X169098959Y-120556947D01*
X169063797Y-120462671D01*
X169063793Y-120462664D01*
X168977547Y-120347455D01*
X168977544Y-120347452D01*
X168862335Y-120261206D01*
X168862328Y-120261202D01*
X168727482Y-120210908D01*
X168727483Y-120210908D01*
X168667883Y-120204501D01*
X168667881Y-120204500D01*
X168667873Y-120204500D01*
X168667864Y-120204500D01*
X167072129Y-120204500D01*
X167072123Y-120204501D01*
X167012516Y-120210908D01*
X166877671Y-120261202D01*
X166877664Y-120261206D01*
X166762455Y-120347452D01*
X166762452Y-120347455D01*
X166676206Y-120462664D01*
X166676202Y-120462671D01*
X166625908Y-120597517D01*
X166622680Y-120627546D01*
X166619501Y-120657123D01*
X166619500Y-120657135D01*
X165254500Y-120657135D01*
X165254500Y-120363886D01*
X165274185Y-120296847D01*
X165290819Y-120276205D01*
X165522679Y-120044345D01*
X165824954Y-119742069D01*
X165865178Y-119715193D01*
X165879179Y-119709394D01*
X166010289Y-119621789D01*
X166121789Y-119510289D01*
X166209394Y-119379179D01*
X166269737Y-119233497D01*
X166300500Y-119078842D01*
X166300500Y-118921158D01*
X166300500Y-118921155D01*
X166300499Y-118921153D01*
X166270086Y-118768258D01*
X166269737Y-118766503D01*
X166217166Y-118639584D01*
X166209397Y-118620827D01*
X166209390Y-118620814D01*
X166187262Y-118587697D01*
X166143454Y-118522135D01*
X173149500Y-118522135D01*
X173149500Y-120317870D01*
X173149501Y-120317876D01*
X173155908Y-120377483D01*
X173206202Y-120512328D01*
X173206206Y-120512335D01*
X173292452Y-120627544D01*
X173292455Y-120627547D01*
X173407664Y-120713793D01*
X173407671Y-120713797D01*
X173452618Y-120730561D01*
X173542517Y-120764091D01*
X173602127Y-120770500D01*
X173612685Y-120770499D01*
X173679723Y-120790179D01*
X173700372Y-120806818D01*
X174370591Y-121477037D01*
X174307007Y-121494075D01*
X174192993Y-121559901D01*
X174099901Y-121652993D01*
X174034075Y-121767007D01*
X174017037Y-121830591D01*
X173384728Y-121198282D01*
X173384727Y-121198282D01*
X173345380Y-121252439D01*
X173248904Y-121441782D01*
X173183242Y-121643869D01*
X173183242Y-121643872D01*
X173150000Y-121853753D01*
X173150000Y-122066246D01*
X173183242Y-122276127D01*
X173183242Y-122276130D01*
X173248904Y-122478217D01*
X173345375Y-122667550D01*
X173384728Y-122721716D01*
X174017037Y-122089408D01*
X174034075Y-122152993D01*
X174099901Y-122267007D01*
X174192993Y-122360099D01*
X174307007Y-122425925D01*
X174370590Y-122442962D01*
X173738282Y-123075269D01*
X173738282Y-123075270D01*
X173792452Y-123114626D01*
X173792451Y-123114626D01*
X173801495Y-123119234D01*
X173852292Y-123167208D01*
X173869087Y-123235029D01*
X173846550Y-123301164D01*
X173801499Y-123340202D01*
X173792182Y-123344949D01*
X173620213Y-123469890D01*
X173469890Y-123620213D01*
X173344951Y-123792179D01*
X173248444Y-123981585D01*
X173182753Y-124183760D01*
X173149500Y-124393713D01*
X173149500Y-124606286D01*
X173171168Y-124743096D01*
X173182754Y-124816243D01*
X173244798Y-125007195D01*
X173248444Y-125018414D01*
X173344951Y-125207820D01*
X173469890Y-125379786D01*
X173620213Y-125530109D01*
X173792179Y-125655048D01*
X173792181Y-125655049D01*
X173792184Y-125655051D01*
X173981588Y-125751557D01*
X174183757Y-125817246D01*
X174393713Y-125850500D01*
X174393714Y-125850500D01*
X174606286Y-125850500D01*
X174606287Y-125850500D01*
X174816243Y-125817246D01*
X175018412Y-125751557D01*
X175207816Y-125655051D01*
X175229789Y-125639086D01*
X175379786Y-125530109D01*
X175379788Y-125530106D01*
X175379792Y-125530104D01*
X175530104Y-125379792D01*
X175530106Y-125379788D01*
X175530109Y-125379786D01*
X175655048Y-125207820D01*
X175655047Y-125207820D01*
X175655051Y-125207816D01*
X175751557Y-125018412D01*
X175817246Y-124816243D01*
X175850500Y-124606287D01*
X175850500Y-124393713D01*
X175817246Y-124183757D01*
X175751557Y-123981588D01*
X175655051Y-123792184D01*
X175655049Y-123792181D01*
X175655048Y-123792179D01*
X175530109Y-123620213D01*
X175379786Y-123469890D01*
X175207817Y-123344949D01*
X175198504Y-123340204D01*
X175147707Y-123292230D01*
X175130912Y-123224409D01*
X175153449Y-123158274D01*
X175198507Y-123119232D01*
X175207555Y-123114622D01*
X175261716Y-123075270D01*
X175261717Y-123075270D01*
X174629408Y-122442962D01*
X174692993Y-122425925D01*
X174807007Y-122360099D01*
X174900099Y-122267007D01*
X174965925Y-122152993D01*
X174982962Y-122089408D01*
X175615270Y-122721717D01*
X175615270Y-122721716D01*
X175654622Y-122667554D01*
X175751095Y-122478217D01*
X175816757Y-122276130D01*
X175816757Y-122276127D01*
X175850000Y-122066246D01*
X175850000Y-121853753D01*
X175816757Y-121643872D01*
X175816757Y-121643869D01*
X175751095Y-121441782D01*
X175654624Y-121252449D01*
X175615270Y-121198282D01*
X175615269Y-121198282D01*
X174982962Y-121830590D01*
X174965925Y-121767007D01*
X174900099Y-121652993D01*
X174807007Y-121559901D01*
X174692993Y-121494075D01*
X174629409Y-121477037D01*
X175299627Y-120806818D01*
X175360950Y-120773333D01*
X175387307Y-120770499D01*
X175397872Y-120770499D01*
X175457483Y-120764091D01*
X175592331Y-120713796D01*
X175707546Y-120627546D01*
X175793796Y-120512331D01*
X175844091Y-120377483D01*
X175850500Y-120317873D01*
X175850499Y-118522128D01*
X175844091Y-118462517D01*
X175843960Y-118462167D01*
X175793797Y-118327671D01*
X175793793Y-118327664D01*
X175707547Y-118212455D01*
X175707544Y-118212452D01*
X175592335Y-118126206D01*
X175592328Y-118126202D01*
X175457482Y-118075908D01*
X175457483Y-118075908D01*
X175397883Y-118069501D01*
X175397881Y-118069500D01*
X175397873Y-118069500D01*
X175397864Y-118069500D01*
X173602129Y-118069500D01*
X173602123Y-118069501D01*
X173542516Y-118075908D01*
X173407671Y-118126202D01*
X173407664Y-118126206D01*
X173292455Y-118212452D01*
X173292452Y-118212455D01*
X173206206Y-118327664D01*
X173206202Y-118327671D01*
X173155908Y-118462517D01*
X173149501Y-118522116D01*
X173149501Y-118522123D01*
X173149500Y-118522135D01*
X166143454Y-118522135D01*
X166121789Y-118489711D01*
X166121786Y-118489707D01*
X166010292Y-118378213D01*
X166010288Y-118378210D01*
X165879185Y-118290609D01*
X165879172Y-118290602D01*
X165733501Y-118230264D01*
X165733489Y-118230261D01*
X165578845Y-118199500D01*
X165578842Y-118199500D01*
X165421158Y-118199500D01*
X165421155Y-118199500D01*
X165266510Y-118230261D01*
X165266498Y-118230264D01*
X165120827Y-118290602D01*
X165120814Y-118290609D01*
X164989711Y-118378210D01*
X164989707Y-118378213D01*
X164878213Y-118489707D01*
X164878207Y-118489715D01*
X164790606Y-118620818D01*
X164790606Y-118620819D01*
X164784805Y-118634824D01*
X164757927Y-118675046D01*
X163913942Y-119519031D01*
X163831372Y-119642607D01*
X163831365Y-119642620D01*
X163819228Y-119671922D01*
X163775386Y-119726325D01*
X163709092Y-119748389D01*
X163641393Y-119731109D01*
X163604349Y-119697353D01*
X163571966Y-119652781D01*
X163427219Y-119508034D01*
X163427213Y-119508028D01*
X163261613Y-119387715D01*
X163261612Y-119387714D01*
X163261610Y-119387713D01*
X163204653Y-119358691D01*
X163079223Y-119294781D01*
X162884534Y-119231522D01*
X162709995Y-119203878D01*
X162682352Y-119199500D01*
X162477648Y-119199500D01*
X162453329Y-119203351D01*
X162275465Y-119231522D01*
X162080776Y-119294781D01*
X161898386Y-119387715D01*
X161732786Y-119508028D01*
X161588028Y-119652786D01*
X161467715Y-119818386D01*
X161374781Y-120000776D01*
X161311522Y-120195465D01*
X161279500Y-120397648D01*
X161279500Y-120602351D01*
X161311522Y-120804534D01*
X161374781Y-120999223D01*
X161467715Y-121181613D01*
X161588028Y-121347213D01*
X161732786Y-121491971D01*
X161826286Y-121559901D01*
X161898390Y-121612287D01*
X161978280Y-121652993D01*
X162080776Y-121705218D01*
X162080778Y-121705218D01*
X162080781Y-121705220D01*
X162185137Y-121739127D01*
X162275465Y-121768477D01*
X162376557Y-121784488D01*
X162477648Y-121800500D01*
X162477649Y-121800500D01*
X162682351Y-121800500D01*
X162682352Y-121800500D01*
X162884534Y-121768477D01*
X163079219Y-121705220D01*
X163261610Y-121612287D01*
X163357082Y-121542923D01*
X163427213Y-121491971D01*
X163427215Y-121491968D01*
X163427219Y-121491966D01*
X163533819Y-121385366D01*
X163595142Y-121351881D01*
X163664834Y-121356865D01*
X163720767Y-121398737D01*
X163745184Y-121464201D01*
X163745500Y-121473047D01*
X163745500Y-124620107D01*
X163725815Y-124687146D01*
X163673011Y-124732901D01*
X163603853Y-124742845D01*
X163540297Y-124713820D01*
X163521182Y-124692992D01*
X163491971Y-124652787D01*
X163491967Y-124652782D01*
X163347213Y-124508028D01*
X163181613Y-124387715D01*
X163181612Y-124387714D01*
X163181610Y-124387713D01*
X163124653Y-124358691D01*
X162999223Y-124294781D01*
X162804534Y-124231522D01*
X162629995Y-124203878D01*
X162602352Y-124199500D01*
X162397648Y-124199500D01*
X162373329Y-124203351D01*
X162195465Y-124231522D01*
X162000776Y-124294781D01*
X161818386Y-124387715D01*
X161652786Y-124508028D01*
X161508028Y-124652786D01*
X161387715Y-124818386D01*
X161294781Y-125000776D01*
X161231522Y-125195465D01*
X161199500Y-125397648D01*
X153640500Y-125397648D01*
X153620498Y-125271361D01*
X153608477Y-125195465D01*
X153550949Y-125018414D01*
X153545220Y-125000781D01*
X153545218Y-125000778D01*
X153545218Y-125000776D01*
X153493053Y-124898398D01*
X153452287Y-124818390D01*
X153435293Y-124794999D01*
X153331971Y-124652786D01*
X153187213Y-124508028D01*
X153021613Y-124387715D01*
X153021612Y-124387714D01*
X153021610Y-124387713D01*
X152964653Y-124358691D01*
X152839223Y-124294781D01*
X152644534Y-124231522D01*
X152469995Y-124203878D01*
X152442352Y-124199500D01*
X152237648Y-124199500D01*
X152213329Y-124203351D01*
X152035465Y-124231522D01*
X151840776Y-124294781D01*
X151658386Y-124387715D01*
X151492786Y-124508028D01*
X151348028Y-124652786D01*
X151227715Y-124818386D01*
X151134781Y-125000776D01*
X151071522Y-125195465D01*
X151039500Y-125397648D01*
X124077737Y-125397648D01*
X124071481Y-125393585D01*
X124025979Y-125340566D01*
X124016364Y-125271361D01*
X124045691Y-125207944D01*
X124051321Y-125201925D01*
X124246052Y-125007195D01*
X124456664Y-124743096D01*
X124636382Y-124457077D01*
X124782946Y-124152734D01*
X124894513Y-123833895D01*
X124969679Y-123504569D01*
X125007500Y-123168898D01*
X125007500Y-122868872D01*
X145699500Y-122868872D01*
X145699500Y-123131127D01*
X145720711Y-123292230D01*
X145733730Y-123391116D01*
X145768903Y-123522383D01*
X145801602Y-123644418D01*
X145801605Y-123644428D01*
X145901953Y-123886690D01*
X145901958Y-123886700D01*
X146033075Y-124113803D01*
X146192718Y-124321851D01*
X146192726Y-124321860D01*
X146378140Y-124507274D01*
X146378148Y-124507281D01*
X146586196Y-124666924D01*
X146813299Y-124798041D01*
X146813309Y-124798046D01*
X147055571Y-124898394D01*
X147055581Y-124898398D01*
X147308884Y-124966270D01*
X147568880Y-125000500D01*
X147568887Y-125000500D01*
X147831113Y-125000500D01*
X147831120Y-125000500D01*
X148091116Y-124966270D01*
X148344419Y-124898398D01*
X148586697Y-124798043D01*
X148813803Y-124666924D01*
X149021851Y-124507282D01*
X149021855Y-124507277D01*
X149021860Y-124507274D01*
X149207274Y-124321860D01*
X149207277Y-124321855D01*
X149207282Y-124321851D01*
X149366924Y-124113803D01*
X149498043Y-123886697D01*
X149598398Y-123644419D01*
X149666270Y-123391116D01*
X149700500Y-123131120D01*
X149700500Y-122868880D01*
X149666270Y-122608884D01*
X149598398Y-122355581D01*
X149580990Y-122313554D01*
X149498046Y-122113309D01*
X149498041Y-122113299D01*
X149366924Y-121886196D01*
X149207281Y-121678148D01*
X149207274Y-121678140D01*
X149021860Y-121492726D01*
X149021851Y-121492718D01*
X148813803Y-121333075D01*
X148586700Y-121201958D01*
X148586690Y-121201953D01*
X148344428Y-121101605D01*
X148344421Y-121101603D01*
X148344419Y-121101602D01*
X148091116Y-121033730D01*
X148033339Y-121026123D01*
X147831127Y-120999500D01*
X147831120Y-120999500D01*
X147568880Y-120999500D01*
X147568872Y-120999500D01*
X147337772Y-121029926D01*
X147308884Y-121033730D01*
X147146752Y-121077173D01*
X147055581Y-121101602D01*
X147055571Y-121101605D01*
X146813309Y-121201953D01*
X146813299Y-121201958D01*
X146586196Y-121333075D01*
X146378148Y-121492718D01*
X146192718Y-121678148D01*
X146033075Y-121886196D01*
X145901958Y-122113299D01*
X145901953Y-122113309D01*
X145801605Y-122355571D01*
X145801602Y-122355581D01*
X145735842Y-122601004D01*
X145733730Y-122608885D01*
X145699500Y-122868872D01*
X125007500Y-122868872D01*
X125007500Y-122831102D01*
X124969679Y-122495431D01*
X124894513Y-122166105D01*
X124878449Y-122120198D01*
X124782948Y-121847272D01*
X124782946Y-121847266D01*
X124636382Y-121542923D01*
X124456664Y-121256904D01*
X124246052Y-120992805D01*
X124007195Y-120753948D01*
X123760162Y-120556945D01*
X123720023Y-120499759D01*
X123717173Y-120429947D01*
X123752518Y-120369677D01*
X123760155Y-120363059D01*
X124007195Y-120166052D01*
X124246052Y-119927195D01*
X124456664Y-119663096D01*
X124636382Y-119377077D01*
X124782946Y-119072734D01*
X124894513Y-118753895D01*
X124969679Y-118424569D01*
X125007500Y-118088898D01*
X125007500Y-117751102D01*
X124969679Y-117415431D01*
X124894513Y-117086105D01*
X124829392Y-116900000D01*
X124799429Y-116814370D01*
X124786164Y-116776462D01*
X130017500Y-116776462D01*
X130017500Y-117123537D01*
X130051518Y-117468939D01*
X130051521Y-117468956D01*
X130119226Y-117809342D01*
X130119229Y-117809353D01*
X130219985Y-118141500D01*
X130352808Y-118462162D01*
X130352810Y-118462167D01*
X130516413Y-118768246D01*
X130516424Y-118768264D01*
X130709242Y-119056836D01*
X130709252Y-119056850D01*
X130929438Y-119325148D01*
X131174851Y-119570561D01*
X131174856Y-119570565D01*
X131174857Y-119570566D01*
X131443155Y-119790752D01*
X131731742Y-119983580D01*
X131731751Y-119983585D01*
X131731753Y-119983586D01*
X132037832Y-120147189D01*
X132037834Y-120147189D01*
X132037840Y-120147193D01*
X132358501Y-120280015D01*
X132690637Y-120380768D01*
X132690643Y-120380769D01*
X132690646Y-120380770D01*
X132690657Y-120380773D01*
X132889082Y-120420241D01*
X133031050Y-120448480D01*
X133376459Y-120482500D01*
X133376462Y-120482500D01*
X133723538Y-120482500D01*
X133723541Y-120482500D01*
X134068950Y-120448480D01*
X134237443Y-120414964D01*
X134324501Y-120397648D01*
X151119500Y-120397648D01*
X151119500Y-120602351D01*
X151151522Y-120804534D01*
X151214781Y-120999223D01*
X151307715Y-121181613D01*
X151428028Y-121347213D01*
X151572786Y-121491971D01*
X151666286Y-121559901D01*
X151738390Y-121612287D01*
X151818280Y-121652993D01*
X151920776Y-121705218D01*
X151920778Y-121705218D01*
X151920781Y-121705220D01*
X152025137Y-121739127D01*
X152115465Y-121768477D01*
X152216557Y-121784488D01*
X152317648Y-121800500D01*
X152317649Y-121800500D01*
X152522351Y-121800500D01*
X152522352Y-121800500D01*
X152724534Y-121768477D01*
X152919219Y-121705220D01*
X153101610Y-121612287D01*
X153197082Y-121542923D01*
X153267213Y-121491971D01*
X153267215Y-121491968D01*
X153267219Y-121491966D01*
X153411966Y-121347219D01*
X153411968Y-121347215D01*
X153411971Y-121347213D01*
X153517504Y-121201957D01*
X153532287Y-121181610D01*
X153625220Y-120999219D01*
X153688477Y-120804534D01*
X153720500Y-120602352D01*
X153720500Y-120397648D01*
X153707863Y-120317864D01*
X153688477Y-120195465D01*
X153625218Y-120000776D01*
X153587725Y-119927194D01*
X153532287Y-119818390D01*
X153496328Y-119768896D01*
X153411971Y-119652786D01*
X153267213Y-119508028D01*
X153101613Y-119387715D01*
X153101612Y-119387714D01*
X153101610Y-119387713D01*
X153044653Y-119358691D01*
X152919223Y-119294781D01*
X152724534Y-119231522D01*
X152549995Y-119203878D01*
X152522352Y-119199500D01*
X152317648Y-119199500D01*
X152293329Y-119203351D01*
X152115465Y-119231522D01*
X151920776Y-119294781D01*
X151738386Y-119387715D01*
X151572786Y-119508028D01*
X151428028Y-119652786D01*
X151307715Y-119818386D01*
X151214781Y-120000776D01*
X151151522Y-120195465D01*
X151119500Y-120397648D01*
X134324501Y-120397648D01*
X134409342Y-120380773D01*
X134409353Y-120380770D01*
X134409353Y-120380769D01*
X134409363Y-120380768D01*
X134741499Y-120280015D01*
X135062160Y-120147193D01*
X135368258Y-119983580D01*
X135656845Y-119790752D01*
X135925143Y-119570566D01*
X136170566Y-119325143D01*
X136390752Y-119056845D01*
X136583580Y-118768258D01*
X136747193Y-118462160D01*
X136880015Y-118141499D01*
X136980768Y-117809363D01*
X136980770Y-117809353D01*
X136980773Y-117809342D01*
X137014964Y-117637443D01*
X137048480Y-117468950D01*
X137082500Y-117123541D01*
X137082500Y-116788741D01*
X142467500Y-116788741D01*
X142467500Y-117111259D01*
X142468710Y-117123541D01*
X142499111Y-117432223D01*
X142562026Y-117748523D01*
X142562029Y-117748534D01*
X142655654Y-118057176D01*
X142779077Y-118355144D01*
X142779079Y-118355149D01*
X142931103Y-118639566D01*
X142931114Y-118639584D01*
X143110285Y-118907732D01*
X143110295Y-118907746D01*
X143314899Y-119157056D01*
X143542943Y-119385100D01*
X143542948Y-119385104D01*
X143542949Y-119385105D01*
X143792259Y-119589709D01*
X144060422Y-119768890D01*
X144060431Y-119768895D01*
X144060433Y-119768896D01*
X144344850Y-119920920D01*
X144344852Y-119920920D01*
X144344858Y-119920924D01*
X144642825Y-120044346D01*
X144951456Y-120137968D01*
X144951462Y-120137969D01*
X144951465Y-120137970D01*
X144951476Y-120137973D01*
X145267776Y-120200888D01*
X145588741Y-120232500D01*
X145588744Y-120232500D01*
X145911256Y-120232500D01*
X145911259Y-120232500D01*
X146232224Y-120200888D01*
X146293799Y-120188639D01*
X146548523Y-120137973D01*
X146548534Y-120137970D01*
X146548534Y-120137969D01*
X146548544Y-120137968D01*
X146857175Y-120044346D01*
X147155142Y-119920924D01*
X147439578Y-119768890D01*
X147707741Y-119589709D01*
X147957051Y-119385105D01*
X148185105Y-119157051D01*
X148389709Y-118907741D01*
X148568890Y-118639578D01*
X148720924Y-118355142D01*
X148844346Y-118057175D01*
X148937968Y-117748544D01*
X148937970Y-117748534D01*
X148937973Y-117748523D01*
X148988639Y-117493799D01*
X149000888Y-117432224D01*
X149032500Y-117111259D01*
X149032500Y-116788741D01*
X149000888Y-116467776D01*
X148976907Y-116347213D01*
X148937973Y-116151476D01*
X148937970Y-116151465D01*
X148937969Y-116151462D01*
X148937968Y-116151456D01*
X148844346Y-115842825D01*
X148720924Y-115544858D01*
X148677350Y-115463336D01*
X148670879Y-115451229D01*
X148642239Y-115397648D01*
X151119500Y-115397648D01*
X151119500Y-115602351D01*
X151151522Y-115804534D01*
X151214781Y-115999223D01*
X151261360Y-116090637D01*
X151305315Y-116176904D01*
X151307715Y-116181613D01*
X151428028Y-116347213D01*
X151572786Y-116491971D01*
X151727749Y-116604556D01*
X151738390Y-116612287D01*
X151854607Y-116671503D01*
X151920776Y-116705218D01*
X151920778Y-116705218D01*
X151920781Y-116705220D01*
X152025137Y-116739127D01*
X152115465Y-116768477D01*
X152165880Y-116776462D01*
X152317648Y-116800500D01*
X152317649Y-116800500D01*
X152522351Y-116800500D01*
X152522352Y-116800500D01*
X152724534Y-116768477D01*
X152919219Y-116705220D01*
X153101610Y-116612287D01*
X153194590Y-116544732D01*
X153267213Y-116491971D01*
X153267215Y-116491968D01*
X153267219Y-116491966D01*
X153411966Y-116347219D01*
X153411968Y-116347215D01*
X153411971Y-116347213D01*
X153464732Y-116274590D01*
X153532287Y-116181610D01*
X153625220Y-115999219D01*
X153688477Y-115804534D01*
X153720500Y-115602352D01*
X153720500Y-115397648D01*
X153688477Y-115195465D01*
X153659127Y-115105137D01*
X153625220Y-115000781D01*
X153625218Y-115000778D01*
X153625218Y-115000776D01*
X153591503Y-114934607D01*
X153532287Y-114818390D01*
X153512254Y-114790817D01*
X153411971Y-114652786D01*
X153267213Y-114508028D01*
X153101613Y-114387715D01*
X153101612Y-114387714D01*
X153101610Y-114387713D01*
X153044653Y-114358691D01*
X152919223Y-114294781D01*
X152724534Y-114231522D01*
X152549995Y-114203878D01*
X152522352Y-114199500D01*
X152317648Y-114199500D01*
X152293329Y-114203351D01*
X152115465Y-114231522D01*
X151920776Y-114294781D01*
X151738386Y-114387715D01*
X151572786Y-114508028D01*
X151428028Y-114652786D01*
X151307715Y-114818386D01*
X151214781Y-115000776D01*
X151151522Y-115195465D01*
X151119500Y-115397648D01*
X148642239Y-115397648D01*
X148568896Y-115260433D01*
X148568895Y-115260431D01*
X148568890Y-115260422D01*
X148389709Y-114992259D01*
X148185105Y-114742949D01*
X148185104Y-114742948D01*
X148185100Y-114742943D01*
X147957056Y-114514899D01*
X147707746Y-114310295D01*
X147707745Y-114310294D01*
X147707741Y-114310291D01*
X147439578Y-114131110D01*
X147439573Y-114131107D01*
X147439566Y-114131103D01*
X147239983Y-114024424D01*
X147155149Y-113979079D01*
X147155144Y-113979077D01*
X147015304Y-113921153D01*
X156199500Y-113921153D01*
X156199500Y-114078846D01*
X156230261Y-114233489D01*
X156230264Y-114233501D01*
X156290602Y-114379172D01*
X156290609Y-114379185D01*
X156378210Y-114510288D01*
X156378213Y-114510292D01*
X156489707Y-114621786D01*
X156489711Y-114621789D01*
X156620814Y-114709390D01*
X156620827Y-114709397D01*
X156729717Y-114754500D01*
X156766503Y-114769737D01*
X156872479Y-114790817D01*
X156921153Y-114800499D01*
X156921156Y-114800500D01*
X156921158Y-114800500D01*
X157078844Y-114800500D01*
X157078845Y-114800499D01*
X157211136Y-114774185D01*
X157233488Y-114769739D01*
X157233489Y-114769738D01*
X157233497Y-114769737D01*
X157247498Y-114763937D01*
X157294947Y-114754500D01*
X161297917Y-114754500D01*
X161364956Y-114774185D01*
X161410711Y-114826989D01*
X161420655Y-114896147D01*
X161408401Y-114934796D01*
X161374782Y-115000774D01*
X161311522Y-115195465D01*
X161279500Y-115397648D01*
X161279500Y-115602351D01*
X161311522Y-115804534D01*
X161374781Y-115999223D01*
X161421360Y-116090637D01*
X161465315Y-116176904D01*
X161467715Y-116181613D01*
X161588028Y-116347213D01*
X161732786Y-116491971D01*
X161887749Y-116604556D01*
X161898390Y-116612287D01*
X162014607Y-116671503D01*
X162080776Y-116705218D01*
X162080778Y-116705218D01*
X162080781Y-116705220D01*
X162185137Y-116739127D01*
X162275465Y-116768477D01*
X162325880Y-116776462D01*
X162477648Y-116800500D01*
X162477649Y-116800500D01*
X162682351Y-116800500D01*
X162682352Y-116800500D01*
X162884534Y-116768477D01*
X163079219Y-116705220D01*
X163261610Y-116612287D01*
X163354590Y-116544732D01*
X163427213Y-116491971D01*
X163427215Y-116491968D01*
X163427219Y-116491966D01*
X163571966Y-116347219D01*
X163571968Y-116347215D01*
X163571971Y-116347213D01*
X163624732Y-116274590D01*
X163692287Y-116181610D01*
X163785220Y-115999219D01*
X163848477Y-115804534D01*
X163855768Y-115758499D01*
X163868322Y-115679240D01*
X163880500Y-115602351D01*
X163880500Y-115397648D01*
X163848477Y-115195465D01*
X163824537Y-115121786D01*
X163785220Y-115000781D01*
X163785217Y-115000777D01*
X163785217Y-115000774D01*
X163751599Y-114934796D01*
X163738702Y-114866126D01*
X163764978Y-114801386D01*
X163822084Y-114761128D01*
X163862083Y-114754500D01*
X165436000Y-114754500D01*
X165503039Y-114774185D01*
X165548794Y-114826989D01*
X165560000Y-114878500D01*
X165560000Y-115250000D01*
X166584722Y-115250000D01*
X166540667Y-115326306D01*
X166510000Y-115440756D01*
X166510000Y-115559244D01*
X166540667Y-115673694D01*
X166584722Y-115750000D01*
X165560000Y-115750000D01*
X165560000Y-116447844D01*
X165566401Y-116507372D01*
X165566403Y-116507379D01*
X165616645Y-116642086D01*
X165616649Y-116642093D01*
X165702809Y-116757187D01*
X165702812Y-116757190D01*
X165817906Y-116843350D01*
X165817913Y-116843354D01*
X165952620Y-116893596D01*
X165952627Y-116893598D01*
X166012155Y-116899999D01*
X166012172Y-116900000D01*
X166710000Y-116900000D01*
X166710000Y-115875277D01*
X166786306Y-115919333D01*
X166900756Y-115950000D01*
X167019244Y-115950000D01*
X167133694Y-115919333D01*
X167210000Y-115875277D01*
X167210000Y-116900000D01*
X167907828Y-116900000D01*
X167907844Y-116899999D01*
X167967372Y-116893598D01*
X167967379Y-116893596D01*
X168102086Y-116843354D01*
X168102093Y-116843350D01*
X168217187Y-116757190D01*
X168217190Y-116757187D01*
X168303350Y-116642093D01*
X168303354Y-116642086D01*
X168333213Y-116562031D01*
X168375084Y-116506097D01*
X168440548Y-116481680D01*
X168508821Y-116496531D01*
X168537076Y-116517683D01*
X168587636Y-116568243D01*
X168587641Y-116568247D01*
X168743192Y-116681260D01*
X168765978Y-116697815D01*
X168882501Y-116757187D01*
X168962393Y-116797895D01*
X168962396Y-116797896D01*
X169067221Y-116831955D01*
X169172049Y-116866015D01*
X169389778Y-116900500D01*
X169389779Y-116900500D01*
X169610221Y-116900500D01*
X169610222Y-116900500D01*
X169827951Y-116866015D01*
X170037606Y-116797895D01*
X170234022Y-116697815D01*
X170412365Y-116568242D01*
X170568242Y-116412365D01*
X170697815Y-116234022D01*
X170797895Y-116037606D01*
X170866015Y-115827951D01*
X170900500Y-115610222D01*
X170900500Y-115389778D01*
X170866015Y-115172049D01*
X170831955Y-115067221D01*
X170797896Y-114962396D01*
X170797892Y-114962388D01*
X170783833Y-114934794D01*
X170770937Y-114866125D01*
X170797214Y-114801385D01*
X170854321Y-114761128D01*
X170894318Y-114754500D01*
X172636112Y-114754500D01*
X172665551Y-114763144D01*
X172695537Y-114769667D01*
X172700554Y-114773422D01*
X172703151Y-114774185D01*
X172723792Y-114790817D01*
X172757927Y-114824951D01*
X172784808Y-114865181D01*
X172790607Y-114879182D01*
X172878210Y-115010288D01*
X172878213Y-115010292D01*
X172989707Y-115121786D01*
X172989711Y-115121789D01*
X173120814Y-115209390D01*
X173120827Y-115209397D01*
X173244014Y-115260422D01*
X173266503Y-115269737D01*
X173421153Y-115300499D01*
X173421156Y-115300500D01*
X173421158Y-115300500D01*
X173578844Y-115300500D01*
X173578845Y-115300499D01*
X173733497Y-115269737D01*
X173879179Y-115209394D01*
X174010289Y-115121789D01*
X174121789Y-115010289D01*
X174209394Y-114879179D01*
X174269737Y-114733497D01*
X174300500Y-114578842D01*
X174300500Y-114421158D01*
X174300500Y-114421155D01*
X174300499Y-114421153D01*
X174292148Y-114379172D01*
X174269737Y-114266503D01*
X174241984Y-114199500D01*
X174209397Y-114120827D01*
X174209390Y-114120814D01*
X174121789Y-113989711D01*
X174121786Y-113989707D01*
X174010292Y-113878213D01*
X174010288Y-113878210D01*
X173879183Y-113790608D01*
X173879180Y-113790606D01*
X173879179Y-113790606D01*
X173865176Y-113784806D01*
X173824951Y-113757927D01*
X173480969Y-113413943D01*
X173480968Y-113413942D01*
X173357392Y-113331372D01*
X173357391Y-113331371D01*
X173357389Y-113331370D01*
X173357386Y-113331368D01*
X173357381Y-113331366D01*
X173263519Y-113292488D01*
X173263517Y-113292487D01*
X173258975Y-113290606D01*
X173220080Y-113274495D01*
X173195894Y-113269684D01*
X173188776Y-113268268D01*
X173188773Y-113268267D01*
X173074314Y-113245499D01*
X173074312Y-113245499D01*
X172925688Y-113245499D01*
X172919574Y-113245499D01*
X172919554Y-113245500D01*
X157294947Y-113245500D01*
X157247498Y-113236062D01*
X157233497Y-113230263D01*
X157233493Y-113230262D01*
X157233488Y-113230260D01*
X157078845Y-113199500D01*
X157078842Y-113199500D01*
X156921158Y-113199500D01*
X156921155Y-113199500D01*
X156766510Y-113230261D01*
X156766498Y-113230264D01*
X156620827Y-113290602D01*
X156620814Y-113290609D01*
X156489711Y-113378210D01*
X156489707Y-113378213D01*
X156378213Y-113489707D01*
X156378210Y-113489711D01*
X156290609Y-113620814D01*
X156290602Y-113620827D01*
X156230264Y-113766498D01*
X156230261Y-113766510D01*
X156199500Y-113921153D01*
X147015304Y-113921153D01*
X146857176Y-113855654D01*
X146548534Y-113762029D01*
X146548523Y-113762026D01*
X146232223Y-113699111D01*
X145990485Y-113675303D01*
X145911259Y-113667500D01*
X145588741Y-113667500D01*
X145515537Y-113674709D01*
X145267776Y-113699111D01*
X144951476Y-113762026D01*
X144951465Y-113762029D01*
X144642823Y-113855654D01*
X144344855Y-113979077D01*
X144344850Y-113979079D01*
X144060433Y-114131103D01*
X144060415Y-114131114D01*
X143792267Y-114310285D01*
X143792253Y-114310295D01*
X143542943Y-114514899D01*
X143314899Y-114742943D01*
X143110295Y-114992253D01*
X143110285Y-114992267D01*
X142931114Y-115260415D01*
X142931103Y-115260433D01*
X142779079Y-115544850D01*
X142779077Y-115544855D01*
X142655654Y-115842823D01*
X142562029Y-116151465D01*
X142562026Y-116151476D01*
X142499111Y-116467776D01*
X142484879Y-116612284D01*
X142467500Y-116788741D01*
X137082500Y-116788741D01*
X137082500Y-116776459D01*
X137048480Y-116431050D01*
X137023229Y-116304108D01*
X136980773Y-116090657D01*
X136980770Y-116090646D01*
X136980769Y-116090643D01*
X136980768Y-116090637D01*
X136880015Y-115758501D01*
X136747193Y-115437840D01*
X136721503Y-115389778D01*
X136583586Y-115131753D01*
X136583585Y-115131751D01*
X136583580Y-115131742D01*
X136390752Y-114843155D01*
X136170566Y-114574857D01*
X136170565Y-114574856D01*
X136170561Y-114574851D01*
X135925148Y-114329438D01*
X135656850Y-114109252D01*
X135656849Y-114109251D01*
X135656845Y-114109248D01*
X135368258Y-113916420D01*
X135368253Y-113916417D01*
X135368246Y-113916413D01*
X135062167Y-113752810D01*
X135062162Y-113752808D01*
X134741500Y-113619985D01*
X134409353Y-113519229D01*
X134409342Y-113519226D01*
X134068956Y-113451521D01*
X134068939Y-113451518D01*
X133807739Y-113425792D01*
X133723541Y-113417500D01*
X133376459Y-113417500D01*
X133298588Y-113425169D01*
X133031060Y-113451518D01*
X133031043Y-113451521D01*
X132690657Y-113519226D01*
X132690646Y-113519229D01*
X132358499Y-113619985D01*
X132037837Y-113752808D01*
X132037832Y-113752810D01*
X131731753Y-113916413D01*
X131731735Y-113916424D01*
X131443163Y-114109242D01*
X131443149Y-114109252D01*
X131174851Y-114329438D01*
X130929438Y-114574851D01*
X130709252Y-114843149D01*
X130709242Y-114843163D01*
X130516424Y-115131735D01*
X130516413Y-115131753D01*
X130352810Y-115437832D01*
X130352808Y-115437837D01*
X130219985Y-115758499D01*
X130119229Y-116090646D01*
X130119226Y-116090657D01*
X130051521Y-116431043D01*
X130051518Y-116431060D01*
X130030734Y-116642093D01*
X130018406Y-116767267D01*
X130017500Y-116776462D01*
X124786164Y-116776462D01*
X124786163Y-116776459D01*
X124782946Y-116767266D01*
X124636382Y-116462923D01*
X124456664Y-116176904D01*
X124246052Y-115912805D01*
X124007195Y-115673948D01*
X124006876Y-115673694D01*
X123879969Y-115572489D01*
X123743096Y-115463336D01*
X123518940Y-115322489D01*
X123457074Y-115283616D01*
X123152741Y-115137057D01*
X123152727Y-115137051D01*
X122833906Y-115025490D01*
X122833894Y-115025486D01*
X122504572Y-114950321D01*
X122504556Y-114950319D01*
X122168902Y-114912500D01*
X122168898Y-114912500D01*
X121831102Y-114912500D01*
X121831097Y-114912500D01*
X121495443Y-114950319D01*
X121495427Y-114950321D01*
X121166105Y-115025486D01*
X121166093Y-115025490D01*
X120847272Y-115137051D01*
X120847258Y-115137057D01*
X120542925Y-115283616D01*
X120256905Y-115463335D01*
X119992805Y-115673947D01*
X119753947Y-115912805D01*
X119543335Y-116176905D01*
X119363616Y-116462925D01*
X119217057Y-116767258D01*
X119217051Y-116767272D01*
X119105490Y-117086093D01*
X119105486Y-117086105D01*
X119030321Y-117415427D01*
X119030319Y-117415443D01*
X118992500Y-117751097D01*
X113500500Y-117751097D01*
X113500500Y-112624500D01*
X113520185Y-112557461D01*
X113572989Y-112511706D01*
X113624500Y-112500500D01*
X176875500Y-112500500D01*
X176942539Y-112520185D01*
G37*
%TD.AperFunction*%
%TD*%
M02*
